<?xml version="1.0" encoding="iso-8859-1"?>
<!-- Generator: Adobe Illustrator 19.0.0, SVG Export Plug-In . SVG Version: 6.00 Build 0)  -->
<svg version="1.1" id="Layer_1" xmlns="http://www.w3.org/2000/svg" xmlns:xlink="http://www.w3.org/1999/xlink" x="0px" y="0px"
	 viewBox="0 0 512 512" style="enable-background:new 0 0 512 512;" xml:space="preserve">
<g>
	<g>
		<circle cx="157.016" cy="104.202" r="40.731"/>
	</g>
</g>
<g>
	<g>
		<path d="M498.082,250.72h-72.741c3.166-1.727,5.314-5.085,5.314-8.945c0-5.624-4.56-10.184-10.184-10.184H406.16l42.276-85.527
			c2.602-5.263,0.222-11.63-5.185-13.901c-77.325-32.534-124.476-51.938-131.62-54.273c-20.109-5.863-47.182,13.181-59.301,32.611
			c-1.938,3.107-0.68,7.203,2.617,8.708l17.767,8.109c-4.233,9.274-0.146,20.223,9.128,24.456
			c9.274,4.233,20.223,0.146,24.456-9.128l17.769,8.109c3.318,1.515,7.217-0.234,8.292-3.728c3.515-11.416,4.28-25.84,1.715-38.64
			l91.306,38.36l-41.938,84.845h-27.008c-5.624,0-10.184,4.56-10.184,10.184c0,3.86,2.148,7.218,5.314,8.945H312.84
			c3.166-1.727,5.314-5.085,5.314-8.945c0-5.624-4.56-10.184-10.184-10.184h-41.4h-6.147c-1.411-7.565-7.481-13.739-15.521-14.887
			l-2.546-0.363c-8.45-17.123-8.321-16.861-16.923-34.288c-2.489-5.044-8.598-7.115-13.639-4.625
			c-5.043,2.489-7.113,8.596-4.625,13.64c3.615,7.325,7.181,14.549,10.753,21.786l-41.18-5.878l-42.846-36.547l27.467,13.3
			c-0.707-16.496-14.231-29.46-30.648-29.578l-28.427-0.203c-17.184-0.123-31.171,13.811-31.124,30.986l0.287,104.811
			c0.022,8.221,3.319,16.094,9.163,21.877c4.123,4.081,9.275,6.877,14.838,8.152H56.605L30.268,185.794
			c-1.627-8.278-9.657-13.674-17.935-12.042c-8.278,1.627-13.67,9.657-12.043,17.935l28.76,146.31
			c1.408,7.163,7.688,12.329,14.989,12.329h41.611v53.254l-47.168,25.83c-4.933,2.7-6.742,8.889-4.041,13.822
			c2.702,4.934,8.893,6.744,13.823,4.041l47.569-26.049l47.569,26.049c4.926,2.7,11.12,0.896,13.823-4.041
			c2.702-4.933,0.892-11.122-4.041-13.822l-47.168-25.83v-53.254h44.95c8.437,0,15.276-6.839,15.276-15.275
			c0-5.111-2.519-9.623-6.373-12.397l14.214,3.314v100.416c0,12.23,9.914,22.145,22.145,22.145c12.231,0,22.145-9.915,22.145-22.145
			V308.392c0-10.294-7.092-19.23-17.117-21.567l-41.308-9.629l0.129-20.326c-15.379-17.828-44.472-53.529-44.472-53.529
			l41.254,35.188c2.659,2.268,5.908,3.735,9.368,4.23l56.998,8.136c-6.883,1.037-12.258,7.147-11.789,14.626
			c0.457,7.275,6.484,13.037,13.873,13.037h6.769v154.712c0,8.427,6.832,15.259,15.259,15.259h0.061
			c8.427,0,15.259-6.832,15.259-15.259V278.557h198.974v154.713c0,8.427,6.832,15.259,15.259,15.259h0.061
			c8.427,0,15.259-6.832,15.259-15.259V278.557h5.869c7.687,0,13.918-6.231,13.918-13.918
			C512,256.952,505.768,250.72,498.082,250.72z"/>
	</g>
</g>
<g>
</g>
<g>
</g>
<g>
</g>
<g>
</g>
<g>
</g>
<g>
</g>
<g>
</g>
<g>
</g>
<g>
</g>
<g>
</g>
<g>
</g>
<g>
</g>
<g>
</g>
<g>
</g>
<g>
</g>
</svg>
